<svg width="512" height="512" viewBox="0 0 512 512" fill="none" xmlns="http://www.w3.org/2000/svg">
<rect width="512" height="512" fill="#2196F3"/>
<g filter="url(#filter0_d)">
<path d="M186.78 177.79C172.657 191.919 149.733 191.919 135.592 177.778C121.469 163.655 121.469 140.731 135.592 126.596C149.727 112.467 172.651 112.467 186.774 126.602C200.903 140.743 200.903 163.666 186.78 177.79ZM375.767 127.15C389.891 141.279 389.891 164.203 375.767 178.326C361.621 192.467 338.697 192.467 324.58 178.338C310.451 164.215 310.451 141.291 324.591 127.156C338.709 113.021 361.633 113.021 375.767 127.15ZM309.645 314.195L294.017 329.841L309.645 345.458C315.231 351.055 318.318 358.49 318.318 366.392C318.318 374.294 315.242 381.741 309.645 387.332C298.464 398.525 278.983 398.537 267.778 387.332L252.149 371.714L236.532 387.332C230.935 392.94 223.506 396.004 215.592 396.004C207.69 396.004 200.261 392.928 194.664 387.332C183.127 375.8 183.127 357.025 194.664 345.487L210.293 329.841L194.653 314.206C183.699 303.246 183.138 285.516 193.375 273.827C193.602 273.523 194.069 272.969 194.594 272.444C205.945 261.087 225.338 261.151 236.52 272.333L252.149 287.973L267.79 272.333C278.434 261.682 296.812 261.122 308.163 271.043C308.531 271.323 309.109 271.814 309.645 272.356C315.231 277.941 318.318 285.365 318.318 293.261C318.329 301.175 315.242 308.598 309.645 314.195Z" fill="white"/>
</g>
<defs>
<filter id="filter0_d" x="117" y="116" width="277.36" height="296.004" filterUnits="userSpaceOnUse" color-interpolation-filters="sRGB">
<feFlood flood-opacity="0" result="BackgroundImageFix"/>
<feColorMatrix in="SourceAlpha" type="matrix" values="0 0 0 0 0 0 0 0 0 0 0 0 0 0 0 0 0 0 127 0"/>
<feOffset dy="8"/>
<feGaussianBlur stdDeviation="4"/>
<feColorMatrix type="matrix" values="0 0 0 0 0 0 0 0 0 0 0 0 0 0 0 0 0 0 0.25 0"/>
<feBlend mode="normal" in2="BackgroundImageFix" result="effect1_dropShadow"/>
<feBlend mode="normal" in="SourceGraphic" in2="effect1_dropShadow" result="shape"/>
</filter>
</defs>
</svg>
