<svg width="512" height="512" viewBox="0 0 512 512" fill="none" xmlns="http://www.w3.org/2000/svg">
<rect width="512" height="512" rx="120" fill="#2196F3"/>
<path d="M206.004 239.337C209.3 239.337 212.522 238.359 215.263 236.528C218.004 234.697 220.14 232.094 221.402 229.048C222.663 226.003 222.993 222.652 222.35 219.419C221.707 216.186 220.12 213.216 217.789 210.885C215.458 208.554 212.488 206.967 209.255 206.324C206.022 205.681 202.671 206.011 199.626 207.272C196.58 208.534 193.977 210.67 192.146 213.411C190.314 216.152 189.337 219.374 189.337 222.67C189.337 227.091 191.093 231.33 194.219 234.455C197.344 237.581 201.583 239.337 206.004 239.337ZM306.004 239.337C309.3 239.337 312.522 238.359 315.263 236.528C318.004 234.697 320.14 232.094 321.402 229.048C322.663 226.003 322.993 222.652 322.35 219.419C321.707 216.186 320.12 213.216 317.789 210.885C315.458 208.554 312.488 206.967 309.255 206.324C306.022 205.681 302.671 206.011 299.626 207.272C296.58 208.534 293.977 210.67 292.146 213.411C290.314 216.152 289.337 219.374 289.337 222.67C289.337 227.091 291.093 231.33 294.219 234.455C297.344 237.581 301.583 239.337 306.004 239.337ZM322.67 289.337C322.67 284.917 320.914 280.677 317.789 277.552C314.663 274.426 310.424 272.67 306.004 272.67C301.583 272.67 297.344 274.426 294.219 277.552C291.093 280.677 289.337 284.917 289.337 289.337H272.67C272.67 284.917 270.914 280.677 267.789 277.552C264.663 274.426 260.424 272.67 256.004 272.67C251.583 272.67 247.344 274.426 244.219 277.552C241.093 280.677 239.337 284.917 239.337 289.337H222.67C222.67 284.917 220.914 280.677 217.789 277.552C214.663 274.426 210.424 272.67 206.004 272.67C201.583 272.67 197.344 274.426 194.219 277.552C191.093 280.677 189.337 284.917 189.337 289.337C184.917 289.337 180.677 291.093 177.552 294.218C174.426 297.344 172.67 301.583 172.67 306.004C172.67 310.424 174.426 314.663 177.552 317.789C180.677 320.914 184.917 322.67 189.337 322.67C189.337 327.091 191.093 331.33 194.219 334.455C197.344 337.581 201.583 339.337 206.004 339.337C210.424 339.337 214.663 337.581 217.789 334.455C220.914 331.33 222.67 327.091 222.67 322.67H239.337C239.337 327.091 241.093 331.33 244.219 334.455C247.344 337.581 251.583 339.337 256.004 339.337C260.424 339.337 264.663 337.581 267.789 334.455C270.914 331.33 272.67 327.091 272.67 322.67H289.337C289.337 327.091 291.093 331.33 294.219 334.455C297.344 337.581 301.583 339.337 306.004 339.337C310.424 339.337 314.663 337.581 317.789 334.455C320.914 331.33 322.67 327.091 322.67 322.67C327.091 322.67 331.33 320.914 334.455 317.789C337.581 314.663 339.337 310.424 339.337 306.004C339.337 301.583 337.581 297.344 334.455 294.218C331.33 291.093 327.091 289.337 322.67 289.337ZM256.004 89.3369C223.04 89.3369 190.817 99.1117 163.409 117.425C136 135.739 114.638 161.769 102.024 192.223C89.4091 222.677 86.1086 256.188 92.5394 288.519C98.9703 320.849 114.844 350.546 138.153 373.855C161.461 397.163 191.158 413.037 223.489 419.468C255.819 425.899 289.33 422.598 319.784 409.984C350.239 397.369 376.268 376.007 394.582 348.599C412.895 321.19 422.67 288.967 422.67 256.004C422.67 234.117 418.359 212.444 409.984 192.223C401.608 172.002 389.331 153.629 373.855 138.152C358.378 122.676 340.005 110.399 319.784 102.024C299.563 93.6479 277.891 89.3369 256.004 89.3369V89.3369ZM256.004 389.337C229.633 389.337 203.854 381.517 181.928 366.866C160.001 352.215 142.911 331.392 132.82 307.028C122.728 282.665 120.088 255.856 125.232 229.992C130.377 204.127 143.076 180.37 161.723 161.723C180.37 143.076 204.127 130.377 229.992 125.232C255.856 120.088 282.665 122.728 307.028 132.82C331.392 142.911 352.215 160.001 366.866 181.928C381.517 203.854 389.337 229.633 389.337 256.004C389.337 291.366 375.289 325.28 350.285 350.284C325.28 375.289 291.366 389.337 256.004 389.337V389.337Z" fill="white"/>
</svg>
